<?xml version="1.0" encoding="UTF-8" standalone="no"?>
<!-- Created with Inkscape (http://www.inkscape.org/) -->

<svg
   xmlns:dc="http://purl.org/dc/elements/1.1/"
   xmlns:cc="http://creativecommons.org/ns#"
   xmlns:rdf="http://www.w3.org/1999/02/22-rdf-syntax-ns#"
   xmlns:svg="http://www.w3.org/2000/svg"
   xmlns="http://www.w3.org/2000/svg"
   xmlns:sodipodi="http://sodipodi.sourceforge.net/DTD/sodipodi-0.dtd"
   xmlns:inkscape="http://www.inkscape.org/namespaces/inkscape"
   width="744.09448819"
   height="1052.3622047"
   id="svg2"
   version="1.1"
   inkscape:version="0.48.5 r10040"
   sodipodi:docname="watch_mockup.svg">
  <defs
     id="defs4" />
  <sodipodi:namedview
     id="base"
     pagecolor="#ffffff"
     bordercolor="#666666"
     borderopacity="1.0"
     inkscape:pageopacity="0.0"
     inkscape:pageshadow="2"
     inkscape:zoom="0.49497475"
     inkscape:cx="760.45008"
     inkscape:cy="739.29393"
     inkscape:document-units="px"
     inkscape:current-layer="layer1"
     showgrid="false"
     inkscape:window-width="1920"
     inkscape:window-height="1029"
     inkscape:window-x="0"
     inkscape:window-y="0"
     inkscape:window-maximized="1"
     inkscape:snap-page="false" />
  <metadata
     id="metadata7">
    <rdf:RDF>
      <cc:Work
         rdf:about="">
        <dc:format>image/svg+xml</dc:format>
        <dc:type
           rdf:resource="http://purl.org/dc/dcmitype/StillImage" />
        <dc:title></dc:title>
      </cc:Work>
    </rdf:RDF>
  </metadata>
  <g
     inkscape:label="Layer 1"
     inkscape:groupmode="layer"
     id="layer1">
    <g
       id="g4032"
       transform="translate(-88.893424,8.0812204)"
       inkscape:export-xdpi="200.91"
       inkscape:export-ydpi="200.91"
       inkscape:export-filename="/home/butchertkd/Desktop/IPC/rostellepolenta/relazione/mockup/watch_mockup.png">
      <rect
         ry="6.1080952"
         y="474.95001"
         x="568.02533"
         height="29.776964"
         width="16.211336"
         id="rect4030"
         style="fill:#b3b3b3;fill-opacity:1;stroke:#ffffff;stroke-width:1.74140716;stroke-opacity:1" />
      <rect
         y="311.30841"
         x="414.40125"
         height="366.58197"
         width="107.01272"
         id="rect4028"
         style="fill:#b3b3b3;fill-opacity:1;stroke:#ffffff;stroke-width:2.97926855;stroke-opacity:1" />
      <g
         transform="matrix(1.5086076,0,0,1.5416251,142.02675,-98.2063)"
         id="g4024">
        <path
           sodipodi:type="arc"
           style="fill:#b3b3b3;fill-opacity:1;stroke:#ffffff;stroke-opacity:1"
           id="path4017"
           sodipodi:cx="214.40488"
           sodipodi:cy="381.36835"
           sodipodi:rx="74.498749"
           sodipodi:ry="72.983521"
           d="m 288.90363,381.36835 c 0,40.30768 -33.35423,72.98352 -74.49875,72.98352 -41.14453,0 -74.49875,-32.67584 -74.49875,-72.98352 0,-40.30769 33.35422,-72.98352 74.49875,-72.98352 41.14452,0 74.49875,32.67583 74.49875,72.98352 z" />
        <path
           sodipodi:type="arc"
           style="fill:#ffffff;fill-opacity:1;stroke:#ffffff;stroke-opacity:1"
           id="path4021"
           sodipodi:cx="223.49625"
           sodipodi:cy="383.38867"
           sodipodi:rx="70.458145"
           sodipodi:ry="63.892151"
           d="m 293.95439,383.38867 c 0,35.28666 -31.54518,63.89215 -70.45814,63.89215 -38.91296,0 -70.45815,-28.60549 -70.45815,-63.89215 0,-35.28666 31.54519,-63.89215 70.45815,-63.89215 38.91296,0 70.45814,28.60549 70.45814,63.89215 z"
           transform="matrix(0.97823519,0,0,1.0666164,-4.1993865,-28.31594)" />
      </g>
      <path
         inkscape:connector-curvature="0"
         id="path3952"
         d="m 452.86788,596.05088 c -24.36738,-2.76014 -44.55805,-12.81258 -63.27468,-31.50287 -10.80507,-10.78988 -14.19816,-15.41485 -20.06299,-27.34703 -15.62108,-31.78146 -15.58122,-63.95784 0.11972,-96.67368 5.79581,-12.0766 8.87532,-16.29549 19.9022,-27.26565 21.69714,-21.58555 45.97897,-31.76333 75.77999,-31.76333 60.5544,0 107.86194,47.07381 107.86194,107.32902 0,64.87391 -55.73518,114.53993 -120.32622,107.22354 z m 81.32491,-39.57602 c 19.47983,-19.82128 28.00368,-40.41207 28.00368,-67.64752 0,-27.74717 -8.51418,-47.98091 -28.69359,-68.18953 -10.06019,-10.07475 -15.55987,-14.24162 -24.35503,-18.45276 -44.91567,-21.50573 -96.5282,-7.70793 -123.82379,33.10234 -11.41799,17.07132 -15.7576,31.81612 -15.7576,53.53995 0,14.83348 0.60057,19.20633 4.09306,29.80196 5.03705,15.2816 16.2133,32.39365 27.86625,42.66622 l 8.63021,7.6079 55.89017,0.0215 55.89016,0.0213 12.25648,-12.47133 z"
         style="fill:#4d4d4d" />
    </g>
  </g>
</svg>
